<svg width="600" height="217" viewBox="0 0 600 217" fill="none" xmlns="http://www.w3.org/2000/svg">
<g filter="url(#filter0_d)">
<path d="M1.10003 1.4C0.30003 2.4 0.10003 27.9 0.20003 96.1L0.50003 189.5L280.3 189.8L560 190L559.8 95.3L559.5 0.499997L280.9 0.199997C46.9 -2.83122e-06 2.10003 0.199997 1.10003 1.4ZM166.5 95V180.5H88H9.50003L9.20003 96C9.10003 49.5 9.20003 10.9 9.50003 10.2C9.80003 9.2 26.1 9 88.2 9.2L166.5 9.5V95ZM550.8 95.2L551 181H366.1C198.4 181 181.2 180.9 180.6 179.4C179.8 177.4 179.8 14.2 180.6 11.2L181.2 9L365.9 9.2L550.5 9.5L550.8 95.2Z" fill="black"/>
<path d="M270.4 50.8C269.1 51.7 267.6 54.9 259.5 75C255.8 84.1 252 93.3 251 95.5C250 97.7 245.7 108 241.5 118.5C237.3 128.9 233.1 138.7 232.4 140.3C231.1 142.7 231.1 143.1 232.5 143.7C235.1 144.6 236.4 142.4 242.5 126.5C245.6 118.2 248.8 111 249.5 110.5C250.2 109.9 257.2 109.6 267.2 109.8L283.7 110.1L290.6 126.8L297.5 143.5L303.9 143.8C307.4 144 310.6 143.7 311.1 143.3C311.5 142.9 311 140.7 310 138.5C308.9 136.3 304.7 126.4 300.5 116.5C296.3 106.6 292.3 97.1 291.5 95.5C290.8 93.8 288.5 88.4 286.5 83.5C284.4 78.5 282 72.7 281 70.5C280 68.3 277.8 63 276 58.8C272.6 50.6 272 49.7 270.4 50.8ZM272 81.7C278.5 97.7 279.9 101 281.1 103.3C281.6 104.3 281.8 105.5 281.5 106C281.1 106.6 274.4 107 265.9 107C253.1 107 251 106.8 251 105.5C251 103.3 265.1 69 266 69C266.4 69 269.1 74.7 272 81.7Z" fill="black"/>
<path d="M84.4 48.8C83.1 49.7 81.6 52.9 73.5 73C69.8 82.1 66 91.3 65 93.5C64 95.7 59.7 106 55.5 116.5C51.3 126.9 47.1 136.7 46.4 138.3C45.1 140.7 45.1 141.1 46.5 141.7C49.1 142.6 50.4 140.4 56.5 124.5C59.6 116.2 62.8 109 63.5 108.5C64.2 107.9 71.2 107.6 81.2 107.8L97.7 108.1L104.6 124.8L111.5 141.5L117.9 141.8C121.4 142 124.6 141.7 125.1 141.3C125.5 140.9 125 138.7 124 136.5C122.9 134.3 118.7 124.4 114.5 114.5C110.3 104.6 106.3 95.1 105.5 93.5C104.8 91.8 102.5 86.4 100.5 81.5C98.4 76.5 96 70.7 95 68.5C94 66.3 91.8 61 90 56.8C86.6 48.6 86 47.7 84.4 48.8ZM86 79.7C92.5 95.7 93.9 99 95.1 101.3C95.6 102.3 95.8 103.5 95.5 104C95.1 104.6 88.4 105 79.9 105C67.1 105 65 104.8 65 103.5C65 101.3 79.1 67 80 67C80.4 67 83.1 72.7 86 79.7Z" fill="#1497D5"/>
<path d="M333.4 51.1C332 53.4 336 54 352.6 53.9C362.1 53.8 370.3 54.1 370.9 54.4C371.7 54.9 372 67.3 372 98.3C372 122.1 372 142.1 372 142.7C372 143.6 374 144 378.5 144H385L385.2 98.9L385.5 53.8L403.5 53.9C421.3 54 426.4 53.2 423 51C420.8 49.6 334.3 49.7 333.4 51.1Z" fill="black"/>
<path d="M465.2 51C454.5 52.6 442.3 60.8 435.4 71C426.7 83.8 425.8 103.7 433.2 118.9C436.7 126.2 445.7 135.6 452.3 138.8C461.2 143.1 463.4 143.5 475 143.4C485.9 143.4 486.9 143.2 493.5 140C502.1 135.9 511.5 126.8 515.3 119C521.6 106 521.6 87.9 515.3 75C510.7 65.6 498.8 55.5 488.5 52.4C482.5 50.6 471.8 50 465.2 51ZM487.3 56.4C494.7 60 500 66.8 503.1 76.5C505.1 82.8 504.8 112 502.6 119.3C497.2 137.1 479.1 145.5 462.3 138C452.2 133.6 445.7 122.2 443.9 106C441.8 87.9 445.3 72.3 453.6 63.2C460.3 55.7 464.7 53.8 475 54.2C480.7 54.4 484.7 55.2 487.3 56.4Z" fill="black"/>
</g>
<defs>
<filter id="filter0_d" x="0.17627" y="0.132431" width="599.824" height="216.868" filterUnits="userSpaceOnUse" color-interpolation-filters="sRGB">
<feFlood flood-opacity="0" result="BackgroundImageFix"/>
<feColorMatrix in="SourceAlpha" type="matrix" values="0 0 0 0 0 0 0 0 0 0 0 0 0 0 0 0 0 0 127 0"/>
<feOffset dx="36" dy="23"/>
<feGaussianBlur stdDeviation="2"/>
<feColorMatrix type="matrix" values="0 0 0 0 0 0 0 0 0 0 0 0 0 0 0 0 0 0 0.25 0"/>
<feBlend mode="normal" in2="BackgroundImageFix" result="effect1_dropShadow"/>
<feBlend mode="normal" in="SourceGraphic" in2="effect1_dropShadow" result="shape"/>
</filter>
</defs>
</svg>
